<?xml version="1.0" encoding="utf-8"?>
<!-- Generated by IcoMoon.io -->
<!DOCTYPE svg PUBLIC "-//W3C//DTD SVG 1.1//EN" "http://www.w3.org/Graphics/SVG/1.1/DTD/svg11.dtd">
<svg version="1.1" xmlns="http://www.w3.org/2000/svg" xmlns:xlink="http://www.w3.org/1999/xlink" width="37" height="32" viewBox="0 0 37 32">
<g id="icomoon-ignore">
	<line stroke-width="1" x1="" y1="" x2="" y2="" stroke="#449FDB" opacity=""></line>
</g>
	<path d="M0 22.589v-12.446h5.857v-5.107h3.643v17.554h-9.5zM3.661 19.661h2.196v-6.589h-2.196v6.589zM10.964 22.589h3.661v-12.446h-3.661v12.446zM10.964 8.679h3.661v-3.643h-3.661v3.643zM16.089 26.964v-2.911h5.857v-1.464h-5.857v-12.446h9.518v16.821h-9.518zM19.75 19.661h2.196v-6.589h-2.196v6.589zM27.071 26.964v-2.911h5.839v-1.464h-5.839v-12.446h9.5v16.821h-9.5zM30.714 19.661h2.196v-6.589h-2.196v6.589z" fill="#000000"></path>
</svg>
