<?xml version="1.0" encoding="utf-8"?>
<!-- Generated by IcoMoon.io -->
<!DOCTYPE svg PUBLIC "-//W3C//DTD SVG 1.1//EN" "http://www.w3.org/Graphics/SVG/1.1/DTD/svg11.dtd">
<svg version="1.1" xmlns="http://www.w3.org/2000/svg" xmlns:xlink="http://www.w3.org/1999/xlink" width="23" height="32" viewBox="0 0 23 32">
<g id="icomoon-ignore">
	<line stroke-width="1" x1="" y1="" x2="" y2="" stroke="#449FDB" opacity=""></line>
</g>
	<path d="M1.982 24.179q0-1.446 0.795-2.679t2.116-2.054q2.339-1.464 7.214-1.786-0.571-0.732-0.848-1.313t-0.277-1.313q0-0.714 0.375-1.518-0.821 0.071-1.214 0.071-2.643 0-4.455-1.723t-1.813-4.366q0-1.464 0.643-2.839t1.768-2.339q1.357-1.179 3.25-1.75t3.893-0.571h7.446l-2.446 1.571h-2.357q1.339 1.125 2.018 2.375t0.679 2.857q0 1.286-0.438 2.312t-1.063 1.661-1.241 1.161-1.054 1.098-0.438 1.179q0 0.643 0.571 1.259t1.375 1.214 1.616 1.313 1.384 1.857 0.571 2.536q0 1.625-0.875 3.089-1.268 2.179-3.741 3.205t-5.33 1.027q-2.357 0-4.402-0.741t-3.080-2.455q-0.643-1.054-0.643-2.339zM5.304 23.357q0 1 0.42 1.821t1.089 1.348 1.554 0.893 1.786 0.518 1.813 0.152q1.036 0 1.991-0.232t1.768-0.696 1.304-1.304 0.491-1.946q0-0.446-0.125-0.875t-0.259-0.75-0.482-0.741-0.527-0.625-0.688-0.616-0.652-0.518-0.741-0.536-0.652-0.464q-0.286-0.036-0.875-0.036-0.946 0-1.866 0.125t-1.911 0.446-1.732 0.821-1.223 1.33-0.482 1.884zM7.196 5.607q0 0.821 0.179 1.741t0.563 1.839 0.929 1.652 1.339 1.196 1.723 0.464q0.661 0 1.384-0.295t1.17-0.777q0.946-1 0.946-2.839 0-1.054-0.304-2.241t-0.857-2.304-1.5-1.848-2.089-0.732q-0.75 0-1.473 0.348t-1.188 0.938q-0.821 1.054-0.821 2.857z" fill="#000000"></path>
</svg>
