<?xml version="1.0" encoding="utf-8"?>
<!-- Generated by IcoMoon.io -->
<!DOCTYPE svg PUBLIC "-//W3C//DTD SVG 1.1//EN" "http://www.w3.org/Graphics/SVG/1.1/DTD/svg11.dtd">
<svg version="1.1" xmlns="http://www.w3.org/2000/svg" xmlns:xlink="http://www.w3.org/1999/xlink" width="25" height="32" viewBox="0 0 25 32">
<g id="icomoon-ignore">
	<line stroke-width="1" x1="" y1="" x2="" y2="" stroke="#449FDB" opacity=""></line>
</g>
	<path d="M0 27.429v-11.429h11.429v11.429h-11.429zM0 13.714v-11.429h11.429v11.429h-11.429zM2.286 25.125h6.857v-6.839h-6.857v6.839zM2.286 11.429h6.857v-6.857h-6.857v6.857zM4.571 22.857v-2.286h2.286v2.286h-2.286zM4.571 9.143v-2.286h2.286v2.286h-2.286zM13.714 27.429v-11.429h6.857v2.286h2.286v-2.286h2.286v6.857h-6.857v-2.286h-2.286v6.857h-2.286zM13.714 13.714v-11.429h11.429v11.429h-11.429zM16 11.429h6.857v-6.857h-6.857v6.857zM18.286 27.429v-2.286h2.286v2.286h-2.286zM18.286 9.143v-2.286h2.286v2.286h-2.286zM22.857 27.429v-2.286h2.286v2.286h-2.286z" fill="#000000"></path>
</svg>
