<?xml version="1.0" encoding="utf-8"?>
<!-- Generated by IcoMoon.io -->
<!DOCTYPE svg PUBLIC "-//W3C//DTD SVG 1.1//EN" "http://www.w3.org/Graphics/SVG/1.1/DTD/svg11.dtd">
<svg version="1.1" xmlns="http://www.w3.org/2000/svg" xmlns:xlink="http://www.w3.org/1999/xlink" width="32" height="32" viewBox="0 0 32 32">
<g id="icomoon-ignore">
	<line stroke-width="1" x1="" y1="" x2="" y2="" stroke="#449FDB" opacity=""></line>
</g>
	<path d="M1.946 0q1.036 0.268 1.929 0.268 0.768 0 1.982-0.268 1.125 1.982 2.384 4.098t2.982 4.938 2.473 4.054q0.661-1.089 1.955-3.17t2.098-3.393 1.875-3.143 1.911-3.384q0.964 0.25 1.911 0.25 1 0 2.036-0.25-0.5 0.696-1.071 1.58t-0.884 1.402-1.009 1.714-0.875 1.5q-2.607 4.429-6.304 10.893l0.232 12.625q-1.107-0.196-1.875-0.196-0.732 0-1.875 0.196l0.232-12.625q-0.714-1.232-3.009-5.277t-3.866-6.688-3.232-5.125z" fill="#000000"></path>
</svg>
